<?xml version="1.0" encoding="UTF-8"?>
<svg width="56px" height="56px" viewBox="0 0 56 56" version="1.1" xmlns="http://www.w3.org/2000/svg" xmlns:xlink="http://www.w3.org/1999/xlink">
    <!-- Generator: Sketch 52.5 (67469) - http://www.bohemiancoding.com/sketch -->
    <title>Artboard</title>
    <desc>Created with Sketch.</desc>
    <g id="Artboard" stroke="none" stroke-width="1" fill="none" fill-rule="evenodd">
        <g id="Activity-Feed/Savings">
            <circle id="Oval" cx="28" cy="28" r="28"></circle>
            <path d="M8.45755676,25.2271287 C8.27117838,25.651107 7.97582703,25.9476765 7.73885405,25.9476765 C6.99593514,25.9476765 6.44588108,25.4109243 6.39744865,24.9098983 C6.34642162,24.3787417 6.88523243,23.9526113 7.83961081,23.7692461 C8.01820541,23.7348113 8.18685405,23.7180243 8.34685405,23.7180243 C8.41690811,23.7180243 8.48696216,23.7210374 8.55485405,23.7283548 C8.72782703,24.205707 8.64825946,24.7941113 8.45755676,25.2271287 M50.2223135,32.2935765 C49.7414486,32.0538243 48.9349622,31.9780678 48.0778811,31.98022 C47.8582054,28.9486678 46.5885838,26.4155591 44.5613405,24.4071504 C46.5851243,21.8318591 46.8441514,19.0693287 46.855827,18.925133 C46.8636108,18.8274243 46.8303135,18.7301461 46.7637189,18.6574026 C46.6966919,18.5846591 46.6019892,18.5437678 46.5029622,18.5437678 C44.1388541,18.5437678 42.0346378,19.4308939 40.6854486,20.1755461 C40.6729081,20.1820026 40.0004757,20.5715461 39.3544216,21.0075765 C36.1055568,19.6172722 32.1708541,18.8962939 27.927827,18.8962939 C20.9064216,18.8962939 14.7243676,20.8629504 11.1070703,24.5875026 C10.8757189,24.0881983 10.5410162,23.5854504 10.0545297,23.2182896 C9.80717838,23.0310504 9.53993514,22.8911591 9.25323243,22.7981852 C9.20220541,22.726733 9.14555676,22.657433 9.08328649,22.5911461 C8.46015135,21.918807 7.13388108,21.3192113 4.35766486,22.2769287 C4.08004324,22.3729157 3.93344865,22.67422 4.02944865,22.9501287 C4.12501622,23.2260374 4.42642162,23.3710939 4.70490811,23.2768287 C5.68869189,22.9376461 6.52458378,22.7938809 7.16934054,22.8438113 C5.71852973,23.2725243 5.26361081,24.2173287 5.33971892,25.0101896 C5.44523243,26.1103809 6.52155676,27.0052548 7.73885405,27.0052548 C8.42598919,27.0052548 9.05820541,26.498633 9.43096216,25.6506765 C9.60134054,25.2641461 9.70771892,24.805733 9.71161081,24.3417243 C10.0030703,24.6757417 10.1955027,25.0949852 10.3226378,25.4772113 C8.68025946,27.5187635 7.79723243,30.0135635 7.79723243,32.9387983 C7.79723243,37.9404504 11.0266378,42.417833 14.9185297,45.4351809 L14.9185297,49.4860026 C14.9185297,50.7002591 15.7907459,51.9394809 17.009773,51.9394809 L21.0949622,51.9394809 C22.3139892,51.9394809 23.5671784,50.7002591 23.5671784,49.4860026 L23.5671784,48.9539852 C24.8644757,49.2376417 26.4182054,49.3930287 28.0108541,49.3930287 C29.2125838,49.3930287 30.4860973,49.302207 31.3509622,49.1382113 L31.3509622,49.4860026 C31.3509622,50.7002591 32.4380973,51.9394809 33.6575568,51.9394809 L37.7423135,51.9394809 C38.961773,51.9394809 39.9996108,50.7002591 39.9996108,49.4860026 L39.9996108,46.1565896 C42.161773,44.7546635 44.2244757,42.9575983 45.6290162,40.8889287 C46.7083676,41.5384548 48.4653405,42.0313026 50.2344216,40.0500113 C53.0681514,36.8764157 51.6385297,32.9986287 50.2223135,32.2935765" id="Fill-1" fill="#FF9990" fill-rule="evenodd"></path>
            <path d="M50.7531676,35.5647087 C50.7531676,36.2021826 50.4357622,36.7204261 50.0448432,36.7204261 C49.6534919,36.7204261 49.3369514,36.2021826 49.3369514,35.5647087 C49.3369514,34.9268043 49.6534919,34.4085609 50.0448432,34.4085609 C50.4357622,34.4085609 50.7531676,34.9268043 50.7531676,35.5647087" id="Fill-4" fill="#745E5E" fill-rule="evenodd"></path>
            <path d="M44.5551135,30.7950609 C44.5551135,31.622787 43.8411676,32.2934043 42.9607351,32.2934043 C42.0807351,32.2934043 41.3672216,31.622787 41.3672216,30.7950609 C41.3672216,29.9677652 42.0807351,29.2971478 42.9607351,29.2971478 C43.8411676,29.2971478 44.5551135,29.9677652 44.5551135,30.7950609" id="Fill-6" fill="#745E5E" fill-rule="evenodd"></path>
            <path d="M33.6969946,23.2502278 C27.8176432,20.4076365 22.7305081,23.205893 22.6790486,23.2347322 L22.155373,22.3140322 C22.3824,22.186193 27.7852108,19.216193 34.1609946,22.298967 L33.6969946,23.2502278 Z" id="Fill-8" fill="#745E5E" fill-rule="evenodd"></path>
            <path d="M33.8747676,10.5411322 C33.8747676,13.7500235 31.2615784,16.3520017 28.0369297,16.3520017 C24.8127135,16.3520017 22.1990919,13.7500235 22.1990919,10.5411322 C22.1990919,7.33181043 24.8127135,4.73026261 28.0369297,4.73026261 C31.2615784,4.73026261 33.8747676,7.33181043 33.8747676,10.5411322" id="Fill-16" stroke="#B89677" stroke-width="1.2" fill="#FDCF92" fill-rule="evenodd" stroke-linecap="round" stroke-linejoin="round"></path>
            <path d="M28.4727784,7.56635435 L28.4727784,8.27571087 C28.5506162,8.31229783 28.6224,8.35792391 28.6885622,8.41258913 C28.7542919,8.46725435 28.8105081,8.53268043 28.8563459,8.6101587 L28.9112649,8.22793261 L29.9119135,8.22793261 L29.9119135,9.82441522 L28.8563459,9.82441522 C28.8563459,9.58380217 28.7849946,9.39699348 28.6401297,9.26485 C28.4961297,9.13356739 28.315373,9.06728043 28.0956973,9.06728043 C28.0546162,9.06728043 28.0100757,9.07416739 27.9620757,9.0879413 C27.9140757,9.10128478 27.8691027,9.12280652 27.8275892,9.15250652 C27.7869405,9.18220652 27.7540757,9.21836304 27.729427,9.26140652 C27.7043459,9.30531087 27.6905081,9.35610217 27.6905081,9.41507174 C27.6905081,9.52913696 27.7480216,9.62211087 27.8621838,9.69485435 C27.9772108,9.76759783 28.1194811,9.83689783 28.2907243,9.90318478 C28.4619676,9.9690413 28.6474811,10.0392022 28.8468324,10.1149587 C29.0453189,10.1898543 29.2299676,10.2836891 29.4012108,10.3977543 C29.5724541,10.5118196 29.7151568,10.6525717 29.8297514,10.8208717 C29.9434811,10.9887413 30.0009946,11.2005152 30.0009946,11.4553326 C30.0009946,11.7054152 29.9542919,11.915037 29.8604541,12.0829065 C29.7666162,12.2512065 29.6468324,12.386363 29.5011027,12.4888065 C29.3545081,12.59125 29.1910486,12.6639935 29.0107243,12.707037 C28.8299676,12.7505109 28.6509405,12.7746152 28.4727784,12.7784891 L28.4727784,13.4813891 L27.5062919,13.4813891 L27.5062919,12.5878065 C27.3826162,12.5197978 27.2641297,12.4354326 27.1499676,12.3355717 L27.0747243,12.7444848 L26.0736432,12.7444848 L26.0736432,11.1002239 L27.1499676,11.1002239 C27.1499676,11.2366717 27.1806703,11.3472935 27.2429405,11.4312283 C27.3043459,11.5155935 27.3782919,11.58145 27.4652108,11.6287978 C27.5516973,11.6770065 27.643373,11.7088587 27.7389405,11.7247848 C27.8340757,11.7407109 27.9145081,11.7510413 27.9785081,11.7553457 C28.0295351,11.7553457 28.0831568,11.7510413 28.1398054,11.7415717 C28.1968865,11.732963 28.2505081,11.717037 28.3015351,11.6942239 C28.3516973,11.6709804 28.3932108,11.6369761 28.4278054,11.5917804 C28.4619676,11.5461543 28.4796973,11.489337 28.4796973,11.4213283 C28.4796973,11.3395457 28.4247784,11.2689543 28.315373,11.2095543 C28.2051027,11.1505848 28.0680216,11.0907543 27.9041297,11.0322152 C27.7389405,10.9732457 27.5599135,10.9073891 27.3653189,10.8346457 C27.1711568,10.7619022 26.9912649,10.6663457 26.827373,10.5479761 C26.6626162,10.4291761 26.5259676,10.2849804 26.4161297,10.1149587 C26.3062919,9.94407609 26.2522378,9.73101087 26.2522378,9.47619348 C26.2522378,9.24892391 26.2902919,9.05393696 26.3681297,8.88951087 C26.4459676,8.72637609 26.545427,8.59078913 26.6669405,8.4840413 C26.7880216,8.37729348 26.9220757,8.29508043 27.0708324,8.23869348 C27.2191568,8.18187609 27.3644541,8.14873261 27.5062919,8.13926304 L27.5062919,7.56635435 L28.4727784,7.56635435 Z" id="Fill-21" fill="#B89677" fill-rule="evenodd"></path>
        </g>
    </g>
</svg>