<svg fill="none" height="64" viewBox="0 0 64 64" width="64" xmlns="http://www.w3.org/2000/svg"><path d="m27.411 39.178c-.1751-.135-.39-.2081-.611-.208-.062 0-2.389.06-4.263.11l-1.537.04c-.968-3.231-1.591-5.326-1.644-5.52-.0612-.2281-.2011-.4272-.395-.562l-1.01-.7c-.2128-.1474-.4745-.2065-.73-.1649s-.4849.1806-.64.3879l-13.38101 17.839c-.10584.1411-.17247.3076-.19315.4828-.02068.1751.00533.3527.07539.5145.07006.1619.18169.3023.32355.4071s.30891.1702.48421.1896l8.30901.923 1.831 7.325c.0457.1826.142.3487.2779.479s.3058.2196.4902.2576c.1844.0381.3758.0233.5521-.0427.1764-.0659.3306-.1803.4448-.3299l13.991-18.36c.1601-.2111.2299-.477.1941-.7395s-.1743-.5-.3851-.6605c-1.077-.82-2.054-1.568-2.184-1.668z" fill="#cde1fa"/><path d="m60.8 50.4-13.38-17.839c-.1551-.2073-.3845-.3463-.64-.3879s-.5172.0175-.73.1649l-1.01.7c-.1939.1348-.3338.3339-.395.562-.053.193-.67 2.266-1.644 5.52l-1.538-.04c-1.874-.05-4.2-.11-4.263-.11-.2211-.0001-.4359.073-.611.208-.13.1-1.107.848-2.184 1.665-.2108.1605-.3493.398-.3851.6605s.034.5284.1941.7395l13.991 18.36c.1142.1497.2684.264.4447.3299.1764.066.3678.0808.5522.0427.1844-.038.3543-.1273.4902-.2576.1358-.1303.2322-.2964.2779-.479l1.83-7.322 8.309-.923c.1754-.0192.3425-.0845.4845-.1893.142-.1047.2538-.2451.3239-.407.0702-.1619.0963-.3395.0757-.5147-.0207-.1752-.0873-.3419-.1931-.483z" fill="#cde1fa"/><path d="m49.88 23.98 2.063-5.847c.0732-.2074.0761-.4331.0081-.6423-.0679-.2091-.203-.39-.3841-.5147l-5.1-3.51-1.767-5.932c-.0648-.2092-.1956-.39182-.3728-.52052s-.3913-.19658-.6102-.19348l-6.188.152-4.92-3.766c-.1745-.13364-.3882-.20606-.608-.20606s-.4335.07242-.608.20606l-4.92 3.766-6.189-.152c-.2183-.0001-.431.06894-.6076.19721s-.308.30919-.3754.51679l-1.768 5.932-5.1 3.51c-.1812.1247-.3162.3056-.3842.5147-.068.2092-.0651.4349.0082.6423l2.063 5.847-2.063 5.837c-.0736.2075-.0766.4334-.0086.6428s.2032.3905.3846.5152l5.1 3.509 1.715 5.757c.0289.248.148.4768.3346.6427s.4277.2575.6774.2573h.031l1.8-.047 4.385-.114 4.919 3.774c.1746.1341.3887.2068.609.2068.2202 0 .4343-.0727.609-.2068l4.943-3.793c.951.081 2.727.114 6.169.18.218.0012.4307-.0677.6068-.1964.176-.1287.3061-.3105.3712-.5186l1.769-5.941 5.1-3.509c.1813-.1247.3165-.3058.3845-.5152s.065-.4353-.0085-.6428z" fill="#3889eb"/><path d="m32 37c7.1797 0 13-5.8203 13-13s-5.8203-13-13-13-13 5.8203-13 13 5.8203 13 13 13z" fill="#3889eb"/><path d="m40.9534 21.3983c-.0547-.1663-.1554-.3142-.2906-.4268-.1352-.1127-.2995-.1856-.4744-.2106l-5.0731-.7302-2.2724-4.551c-.0872-.1461-.2114-.2672-.3604-.3513-.1489-.0842-.3174-.1284-.4889-.1284-.1714 0-.3399.0442-.4889.1284-.1489.0841-.2731.2052-.3604.3513l-2.2724 4.551-5.0636.7292c-.1747.0256-.3388.0991-.4736.2122s-.2349.2612-.2891.4277c-.0542.1664-.0602.3446-.0175.5143.0428.1697.1327.3242.2595.4459l3.6708 3.5415-.8663 5.0018c-.0301.1724-.0108.3498.0557.5119.0665.1622.1775.3027.3205.4056s.3122.1641.4885.1768c.1763.0126.3527-.0239.5091-.1054l4.5325-2.3622 4.5371 2.3622c.136.0701.287.1068.4403.1069.1379 0 .2742-.0297.3993-.0873.125-.0575.2359-.1414.3248-.2457.089-.1044.1538-.2267.19-.3585.0361-.1317.0428-.2697.0195-.4043l-.8664-5.0018 3.6709-3.5415c.1267-.1221.2162-.277.2586-.4469.0423-.17.0357-.3483-.0191-.5148z" fill="#fff"/></svg>