<svg fill="none" height="64" viewBox="0 0 64 64" width="64" xmlns="http://www.w3.org/2000/svg"><path d="m32 8c13.2548 0 24 10.7452 24 24s-10.7452 24-24 24-24-10.7452-24-24 10.7452-24 24-24z" fill="#3889eb"/><path d="m32 52.5714c11.3613 0 20.5714-9.2101 20.5714-20.5714s-9.2101-20.5714-20.5714-20.5714-20.5714 9.2101-20.5714 20.5714 9.2101 20.5714 20.5714 20.5714z" fill="#cde1fa"/><path d="m32.4286 30.1342c-2.0396 0-3.693-1.7349-3.693-3.875s1.6534-3.8751 3.693-3.8751c2.0395 0 3.693 1.735 3.693 3.8751 0 .7926.6123 1.4352 1.3678 1.4352.7554 0 1.3677-.6426 1.3677-1.4352-.0271-3.1496-2.1278-5.8603-5.0607-6.5303v-1.7223c0-.7926-.6124-1.4352-1.3678-1.4352-.7555 0-1.3678.6426-1.3678 1.4352v1.7223c-3.4393.9246-5.5132 4.5998-4.632 8.2086.7077 2.8983 3.1503 4.9611 5.9998 5.0672 2.0395 0 3.693 1.7349 3.693 3.875s-1.6535 3.8751-3.693 3.8751c-2.0396 0-3.693-1.735-3.693-3.8751 0-.7927-.6124-1.4352-1.3678-1.4352s-1.3678.6425-1.3678 1.4352c.0013 3.1593 2.1135 5.8848 5.0608 6.5303v2.5833c0 .7927.6123 1.4353 1.3678 1.4353.7554 0 1.3678-.6426 1.3678-1.4353v-2.5833c3.4393-.9246 5.5131-4.5998 4.6319-8.2086-.7076-2.8983-3.1503-4.9613-5.9997-5.0672z" fill="#3889eb"/></svg>