<svg fill="none" height="64" viewBox="0 0 64 64" width="64" xmlns="http://www.w3.org/2000/svg"><path d="m32 34c-4.125 0-7.5 3.375-7.5 7.5s3.375 7.5 7.5 7.5 7.5-3.375 7.5-7.5-3.375-7.5-7.5-7.5z" fill="#3889eb"/><path d="m50.75 49c-4.1362 0-7.5-3.3638-7.5-7.5s3.3638-7.5 7.5-7.5 7.5 3.3638 7.5 7.5-3.3638 7.5-7.5 7.5z" fill="#2466b6"/><path d="m13.25 49c-4.13623 0-7.5-3.3638-7.5-7.5s3.36377-7.5 7.5-7.5c4.1362 0 7.5 3.3638 7.5 7.5s-3.3638 7.5-7.5 7.5z" fill="#cde1fa"/><path d="m20.75 64h-15c-1.03564 0-1.875-.8394-1.875-1.875v-3.75c0-5.1777 4.19727-9.375 9.375-9.375 5.1777 0 9.375 4.1973 9.375 9.375v3.75c0 1.0356-.8394 1.875-1.875 1.875z" fill="#cde1fa"/><path d="m41.375 58.375v3.75c0 1.0498-.8247 1.875-1.875 1.875h-15c-1.0503 0-1.875-.8252-1.875-1.875v-3.75c0-5.1748 4.2002-9.375 9.375-9.375 2.5874 0 4.9502 1.0498 6.6377 2.7373 1.687 1.6875 2.7373 4.0503 2.7373 6.6377z" fill="#3889eb"/><path d="m58.2505 64h-15c-1.0357 0-1.875-.8394-1.875-1.875v-3.75c0-5.1777 4.1973-9.375 9.375-9.375 5.1772 0 9.375 4.1973 9.375 9.375v3.75c0 1.0356-.8399 1.875-1.875 1.875z" fill="#2466b6"/><path d="m29.7848 21.4655c-.0845-.0651-.1882-.1005-.295-.1004-.0299 0-1.1533.029-2.058.0531l-.742.0193c-.4673-1.5598-.7681-2.5712-.7937-2.6649-.0295-.1101-.0971-.2062-.1907-.2713l-.4876-.3379c-.1027-.0712-.229-.0997-.3524-.0796-.1233.0201-.2341.0872-.3089.1873l-6.4599 8.612c-.0511.0681-.0833.1485-.0933.2331-.01.0845.0026.1702.0364.2484.0339.0781.0877.1459.1562.1965s.1492.0822.2338.0915l4.0113.4456.8839 3.5363c.0221.0882.0686.1683.1342.2312s.1476.1061.2366.1244c.0891.0184.1815.0112.2666-.0206s.1596-.087.2147-.1593l6.7544-8.8636c.0773-.1019.111-.2303.0937-.357s-.0842-.2414-.1859-.3188c-.52-.3959-.9916-.757-1.0544-.8053z" fill="#cde1fa"/><path d="m45.9038 26.8831-6.4594-8.612c-.0748-.1001-.1856-.1672-.3089-.1873-.1234-.0201-.2497.0084-.3524.0796l-.4876.3379c-.0936.0651-.1612.1612-.1907.2713-.0256.0932-.3235 1.094-.7937 2.6649l-.7425-.0193c-.9047-.0241-2.0276-.0531-2.058-.0531-.1067-.0001-.2105.0353-.295.1004-.0627.0483-.5344.4094-1.0543.8038-.1018.0775-.1687.1922-.186.3189-.0172.1267.0165.2551.0937.357l6.7544 8.8636c.0552.0722.1296.1274.2147.1592.0852.0319.1776.039.2666.0207.089-.0184.171-.0615.2366-.1244s.1121-.1431.1342-.2313l.8835-3.5348 4.0112-.4456c.0847-.0093.1654-.0408.234-.0913.0685-.0506.1225-.1184.1563-.1965.0339-.0782.0465-.1639.0366-.2485-.01-.0846-.0422-.1651-.0933-.2332z" fill="#cde1fa"/><path d="m40.632 14.1284.996-2.8227c.0354-.1001.0368-.2091.0039-.31-.0328-.101-.098-.1884-.1854-.2485l-2.4621-1.69455-.8531-2.86376c-.0312-.101-.0944-.18916-.1799-.25129-.0856-.06213-.1889-.0949-.2946-.09341l-2.9874.07338-2.3752-1.81809c-.0842-.06452-.1874-.09948-.2935-.09948s-.2093.03496-.2935.09948l-2.3752 1.81809-2.9879-.07338c-.1053-.00005-.208.03328-.2933.09521-.0852.06192-.1487.14927-.1812.24949l-.8536 2.86376-2.4621 1.69455c-.0874.0601-.1526.1475-.1854.2485-.0328.1009-.0315.2099.0039.31l.996 2.8227-.996 2.8179c-.0355.1002-.0369.2093-.0041.3104s.0981.1885.1856.2487l2.4621 1.694.828 2.7793c.014.1197.0714.2302.1615.3103s.2065.1243.327.1242h.015l.869-.0227 2.1169-.055 2.3747 1.8219c.0844.0648.1877.0999.294.0999.1064 0 .2097-.0351.294-.0999l2.3863-1.8311c.4592.0391 1.3165.055 2.9782.0869.1053.0005.208-.0327.293-.0948.085-.0622.1478-.1499.1792-.2504l.854-2.8681 2.4621-1.694c.0876-.0602.1528-.1477.1856-.2487.0328-.1011.0314-.2102-.0041-.3104z" fill="#3889eb"/><path d="m32.0002 20.414c3.4661 0 6.276-2.8098 6.276-6.2759s-2.8099-6.27598-6.276-6.27598-6.2759 2.80988-6.2759 6.27598 2.8098 6.2759 6.2759 6.2759z" fill="#3889eb"/><path d="m36.3226 12.8821c-.0264-.0803-.075-.1517-.1403-.2061-.0652-.0544-.1446-.0896-.229-.1016l-2.4491-.3526-1.097-2.197c-.0422-.07055-.1021-.12901-.174-.16962s-.1533-.06197-.2361-.06197c-.0827 0-.1641.02136-.236.06197s-.1318.09907-.174.16962l-1.097 2.197-2.4445.3521c-.0844.0124-.1636.0478-.2287.1024-.065.0546-.1134.1261-.1395.2065-.0262.0804-.0291.1664-.0085.2483.0207.0819.064.1565.1253.2153l1.7721 1.7097-.4182 2.4147c-.0145.0832-.0052.1688.0269.2471s.0857.1461.1547.1958.1507.0792.2358.0853c.0852.0061.1703-.0115.2458-.0508l2.1881-1.1404 2.1904 1.1404c.0657.0338.1386.0515.2126.0516.0666 0 .1323-.0144.1927-.0421.0604-.0278.1139-.0683.1569-.1187.0429-.0504.0742-.1094.0916-.173.0175-.0636.0207-.1303.0095-.1952l-.4183-2.4147 1.7722-1.7097c.0611-.059.1044-.1337.1248-.2158.0205-.0821.0173-.1681-.0092-.2485z" fill="#fff"/></svg>