<svg fill="none" height="64" viewBox="0 0 64 64" width="64" xmlns="http://www.w3.org/2000/svg" xmlns:xlink="http://www.w3.org/1999/xlink"><clipPath id="a"><path d="m0 0h64v64h-64z"/></clipPath><g clip-path="url(#a)"><path d="m55.3466 25.733v38.288h-46.77725v-38.288l23.38865-15.3062z" fill="#3889eb"/><g fill="#f7faff"><path d="m25.5677 37.7605c-3.1838.001-5.7653-2.5791-5.7658-5.7629-.0005-3.1834 2.5805-5.7644 5.7644-5.764 3.1833 0 5.7639 2.5816 5.7629 5.7654-.0054 3.18-2.582 5.7561-5.7615 5.7615zm0-8.5229c-1.5244-.0015-2.7604 1.2335-2.7619 2.7575-.001 1.524 1.2336 2.7605 2.7575 2.7614 1.5245.001 2.761-1.2335 2.762-2.7575 0-1.5235-1.2341-2.7595-2.7576-2.7614z"/><path d="m38.3482 56.9336c-3.1834 0-5.7639-2.5805-5.7634-5.7639s2.5815-5.7639 5.7649-5.7629c3.1833.0005 5.7634 2.582 5.7624 5.7653-.0044 3.181-2.583 5.7581-5.7639 5.7615zm0-8.5209c-1.524 0-2.7595 1.2355-2.7595 2.7594 0 1.524 1.2355 2.7595 2.7595 2.7595 1.5244 0 2.76-1.2355 2.76-2.7595-.0059-1.5205-1.2395-2.7506-2.76-2.7516z"/><path d="m20.1099 54.511 21.3165-27.6882 2.3806 1.8325-21.317 27.6887z"/></g><path d="m33.6242 1.15874c-1.0267-.61115-2.3058-.61115-3.3325 0l-30.2917 20.26436v10.0753l31.958-21.0716 32.042 21.0716-.0841-10.3476z" fill="#cde1fa"/><path d="m17.0443 4.04633h-8.47495v11.66127l8.47495-5.6773z" fill="#3889eb"/><path d="m6.56673.0410767h12.48027v4.0052533h-12.48027z" fill="#cde1fa"/></g></svg>