<svg fill="none" height="37" viewBox="0 0 203 37" width="203" xmlns="http://www.w3.org/2000/svg" xmlns:xlink="http://www.w3.org/1999/xlink"><clipPath id="a"><path d="m166 0h29v37h-29z"/></clipPath><g fill="#f58f17"><path d="m17.5767 2.21993c.3416-.82129 1.505-.82129 1.8466 0l3.7354 8.98107c.1441.3462.4697.5828.8435.6127l9.6957.7774c.8867.071 1.2462 1.1775.5707 1.7562l-7.3872 6.3279c-.2848.244-.4091.6267-.3221.9915l2.2569 9.4614c.2064.8653-.7349 1.5491-1.494 1.0855l-8.3009-5.0702c-.3201-.1955-.7225-.1955-1.0426 0l-8.3009 5.0702c-.7591.4636-1.70036-.2202-1.49397-1.0855l2.25687-9.4614c.087-.3648-.0373-.7475-.3221-.9915l-7.38719-6.3279c-.67554-.5787-.31601-1.6852.57064-1.7562l9.69575-.7774c.3738-.0299.6994-.2665.8435-.6127z"/><path d="m58.5767 2.21993c.3416-.82129 1.505-.82129 1.8466 0l3.7354 8.98107c.1441.3462.4697.5828.8435.6127l9.6957.7774c.8867.071 1.2462 1.1775.5707 1.7562l-7.3872 6.3279c-.2848.244-.4091.6267-.3221.9915l2.2569 9.4614c.2064.8653-.7349 1.5491-1.494 1.0855l-8.3009-5.0702c-.3201-.1955-.7225-.1955-1.0426 0l-8.3009 5.0702c-.7591.4636-1.7004-.2202-1.494-1.0855l2.2569-9.4614c.087-.3648-.0373-.7475-.3221-.9915l-7.3872-6.3279c-.6755-.5787-.316-1.6852.5707-1.7562l9.6957-.7774c.3738-.0299.6994-.2665.8435-.6127z"/><path d="m100.584 2.08905c.35-.79798 1.482-.79798 1.832 0l4.001 9.12585c.148.3385.471.5675.84.5956l10.286.7823c.901.0686 1.256 1.2031.555 1.7732l-7.758 6.3047c-.302.2451-.434.6429-.339 1.0199l2.383 9.4801c.216.8575-.706 1.5524-1.471 1.1091l-8.912-5.1643c-.31-.1797-.692-.1797-1.002 0l-8.9123 5.1643c-.7651.4433-1.6868-.2516-1.4712-1.1091l2.3836-9.4801c.0948-.377-.0375-.7748-.3391-1.0199l-7.7579-6.3047c-.7016-.5701-.3466-1.7046.5548-1.7732l10.2864-.7823c.3686-.0281.6916-.2571.84-.5956z"/><path d="m142.577 2.21993c.341-.82129 1.505-.82129 1.846 0l3.736 8.98107c.144.3462.469.5828.843.6127l9.696.7774c.887.071 1.246 1.1775.571 1.7562l-7.388 6.3279c-.284.244-.409.6267-.322.9915l2.257 9.4614c.207.8653-.735 1.5491-1.494 1.0855l-8.301-5.0702c-.32-.1955-.722-.1955-1.042 0l-8.301 5.0702c-.759.4636-1.701-.2202-1.494-1.0855l2.257-9.4614c.087-.3648-.038-.7475-.322-.9915l-7.388-6.3279c-.675-.5787-.316-1.6852.571-1.7562l9.696-.7774c.374-.0299.699-.2665.843-.6127z"/></g><path d="m183.577 2.21993c.341-.82129 1.505-.82129 1.846 0l3.736 8.98107c.144.3462.469.5828.843.6127l9.696.7774c.887.071 1.246 1.1775.571 1.7562l-7.388 6.3279c-.284.244-.409.6267-.322.9915l2.257 9.4614c.207.8653-.735 1.5491-1.494 1.0855l-8.301-5.0702c-.32-.1955-.722-.1955-1.042 0l-8.301 5.0702c-.759.4636-1.701-.2202-1.494-1.0855l2.257-9.4614c.087-.3648-.038-.7475-.322-.9915l-7.388-6.3279c-.675-.5787-.316-1.6852.571-1.7562l9.696-.7774c.374-.0299.699-.2665.843-.6127z" fill="#cde1fa"/><g clip-path="url(#a)"><path d="m183.577 2.21993c.341-.82129 1.505-.82129 1.846 0l3.736 8.98107c.144.3462.469.5828.843.6127l9.696.7774c.887.071 1.246 1.1775.571 1.7562l-7.388 6.3279c-.284.244-.409.6267-.322.9915l2.257 9.4614c.207.8653-.735 1.5491-1.494 1.0855l-8.301-5.0702c-.32-.1955-.722-.1955-1.042 0l-8.301 5.0702c-.759.4636-1.701-.2202-1.494-1.0855l2.257-9.4614c.087-.3648-.038-.7475-.322-.9915l-7.388-6.3279c-.675-.5787-.316-1.6852.571-1.7562l9.696-.7774c.374-.0299.699-.2665.843-.6127z" fill="#f58f17"/></g></svg>