<svg fill="none" height="64" viewBox="0 0 64 64" width="64" xmlns="http://www.w3.org/2000/svg" xmlns:xlink="http://www.w3.org/1999/xlink"><clipPath id="a"><path d="m0 0h64v64h-64z"/></clipPath><g clip-path="url(#a)"><path d="m40.96 16.64c-.7069 0-1.28-.5731-1.28-1.28v-5.12c0-.70685.5731-1.27998 1.28-1.27998s1.28.57313 1.28 1.27998v5.12c0 .7069-.5731 1.28-1.28 1.28z" fill="#3889eb"/><path d="m53.6394 20.1625c-.4619 0-.8882-.25-1.1144-.6525-.2269-.4032-.2181-.8969.0212-1.2919l2.655-4.3775c.3707-.595 1.1513-.7819 1.7507-.4181.5993.3637.795 1.1418.4381 1.7456l-2.6544 4.3787c-.2325.3825-.6481.6163-1.0962.6157z" fill="#3889eb"/><path d="m64 37.12c0 12.7244-10.3156 23.04-23.04 23.04s-23.04-10.3156-23.04-23.04 10.3156-23.04 23.04-23.04 23.04 10.3156 23.04 23.04z" fill="#3889eb"/><path d="m58.88 37.12c0 9.8969-8.0231 17.92-17.92 17.92s-17.92-8.0231-17.92-17.92 8.0231-17.92 17.92-17.92 17.92 8.0231 17.92 17.92z" fill="#f7faff"/><path d="m58.88 37.12c-.0106-9.8925-8.0275-17.9094-17.92-17.92v35.84c9.8925-.0106 17.9094-8.0275 17.92-17.92z" fill="#f7faff"/><path d="m12.8 38.4h-11.52c-.706875 0-1.28-.5731-1.28-1.28 0-.7068.573125-1.28 1.28-1.28h11.52c.7069 0 1.28.5732 1.28 1.28 0 .7069-.5731 1.28-1.28 1.28z" fill="#cde1fa"/><path d="m16.64 25.6h-7.68001c-.70687 0-1.28-.5731-1.28-1.28s.57313-1.28 1.28-1.28h7.68001c.7069 0 1.28.5731 1.28 1.28s-.5731 1.28-1.28 1.28z" fill="#cde1fa"/><path d="m16.64 51.2h-7.68001c-.70687 0-1.28-.5731-1.28-1.28s.57313-1.28 1.28-1.28h7.68001c.7069 0 1.28.5731 1.28 1.28s-.5731 1.28-1.28 1.28z" fill="#cde1fa"/><path d="m14.08 32h-8.96c-.70688 0-1.28-.5731-1.28-1.28s.57312-1.28 1.28-1.28h8.96c.7069 0 1.28.5731 1.28 1.28s-.5731 1.28-1.28 1.28z" fill="#cde1fa"/><path d="m14.08 44.8h-8.96c-.70688 0-1.28-.5731-1.28-1.28s.57312-1.28 1.28-1.28h8.96c.7069 0 1.28.5731 1.28 1.28s-.5731 1.28-1.28 1.28z" fill="#cde1fa"/><g fill="#3889eb"><path d="m43.52 3.84003h-5.12c-2.1206 0-3.84 1.71937-3.84 3.84 0 2.12062 1.7194 3.83997 3.84 3.83997h5.12c2.1206 0 3.84-1.71935 3.84-3.83997 0-2.12063-1.7194-3.84-3.84-3.84z"/><path d="m63.4775 11.8132c-.0806-.33-.2894-.6138-.5794-.79l-6.5681-3.98317c-.2894-.17813-.6387-.23125-.9687-.14875-.3288.08125-.6125.28937-.7888.57875l-2.6544 4.37877c-.3662.6044-.1737 1.3906.43 1.7575l6.5675 3.9825c.6044.3656 1.3907.1731 1.7575-.4306l2.6563-4.3788c.1756-.2894.2287-.6369.1481-.9662z"/><path d="m40.96 38.4c-.7069 0-1.28-.5732-1.28-1.28v-5.12c0-.7069.5731-1.28 1.28-1.28s1.28.5731 1.28 1.28v5.12c0 .7068-.5731 1.28-1.28 1.28z"/><path d="m40.96 38.4h-2.56c-.7069 0-1.28-.5731-1.28-1.28 0-.7068.5731-1.28 1.28-1.28h2.56c.7069 0 1.28.5732 1.28 1.28 0 .7069-.5731 1.28-1.28 1.28z"/><path d="m29.44 38.4h-5.12c-.7069 0-1.28-.5731-1.28-1.28 0-.7068.5731-1.28 1.28-1.28h5.12c.7069 0 1.28.5732 1.28 1.28 0 .7069-.5731 1.28-1.28 1.28z"/><path d="m31.0044 28.4444c-.3394 0-.665-.135-.905-.375l-1.8113-1.81c-.5-.5007-.5-1.3113 0-1.8113s1.3107-.5 1.8113 0l1.81 1.81c.3656.3656.475.9163.2769 1.3944-.1982.4781-.6644.79-1.1819.7906z"/><path d="m40.96 26.88c-.7069 0-1.28-.5731-1.28-1.28v-5.12c0-.7069.5731-1.28 1.28-1.28s1.28.5731 1.28 1.28v5.12c0 .7069-.5731 1.28-1.28 1.28z"/><path d="m50.9156 28.4444c-.5175-.0007-.9837-.3119-1.1818-.7907-.1982-.4781-.0888-1.0287.2768-1.3943l1.81-1.8113c.5007-.5 1.3113-.5 1.8113 0s.5 1.3106 0 1.8113l-1.81 1.81c-.24.24-.5663.375-.9063.375z"/><path d="m57.6 38.4h-5.12c-.7069 0-1.28-.5731-1.28-1.28 0-.7068.5731-1.28 1.28-1.28h5.12c.7069 0 1.28.5732 1.28 1.28 0 .7069-.5731 1.28-1.28 1.28z"/><path d="m52.7256 50.1656c-.3394 0-.665-.135-.905-.375l-1.81-1.81c-.485-.5019-.4781-1.3006.0156-1.7944.4938-.4937 1.2925-.5006 1.7944-.0156l1.8113 1.81c.3662.3663.4756.9169.2775 1.395-.1982.4781-.665.79-1.1825.79z"/><path d="m40.96 55.04c-.7069 0-1.28-.5731-1.28-1.28v-5.12c0-.7069.5731-1.28 1.28-1.28s1.28.5731 1.28 1.28v5.12c0 .7069-.5731 1.28-1.28 1.28z"/><path d="m29.1944 50.1656c-.5175 0-.9844-.3119-1.1825-.79-.1982-.4781-.0888-1.0287.2775-1.395l1.81-1.81c.3212-.3325.7968-.4656 1.2443-.3487.4475.1168.7975.4668.9144.9143s-.0162.9232-.3487 1.2444l-1.81 1.8113c-.2407.24-.5657.3743-.905.3737z"/></g></g></svg>